<svg xmlns="http://www.w3.org/2000/svg" viewBox="0 0 32 32" fill="none">
  <g clip-path="url(#repeat-pattern__clip0_1775:55502)" stroke="#000" stroke-miterlimit="10">
    <path d="M13.5 0a5.988 5.988 0 01-1.753 4.243L8 8l-3.747 3.757A5.988 5.988 0 002.5 16v0a5.988 5.988 0 001.753 4.243L8 24l3.747 3.757A5.989 5.989 0 0113.5 32m5-32a5.988 5.988 0 001.753 4.243L24 8l3.747 3.757A5.989 5.989 0 0129.5 16v0a5.988 5.988 0 01-1.753 4.243L24 24l-3.747 3.757A5.989 5.989 0 0018.5 32"/>
    <path d="M32 2.5a5.988 5.988 0 00-4.243 1.753L24 8l-3.757 3.747A5.989 5.989 0 0116 13.5v0a5.988 5.988 0 01-4.243-1.753L8 8 4.243 4.253A5.988 5.988 0 000 2.5m32 27a5.988 5.988 0 01-4.243-1.753L24 24l-3.757-3.747A5.989 5.989 0 0016 18.5v0a5.988 5.988 0 00-4.243 1.753L8 24l-3.757 3.747A5.989 5.989 0 010 29.5"/>
  </g>
  <defs>
    <clipPath id="repeat-pattern__clip0_1775:55502">
      <path fill="#fff" d="M0 0h32v32H0z"/>
    </clipPath>
  </defs>
</svg>